<svg
    xmlns="http://www.w3.org/2000/svg"
    width="100"
    height="100"
    viewbox="0 0 100 100">
    <rect
        x="0"
        y="10"
        height="60"
        width="100"
        style="fill:#4a4244;fill-opacity:1;stroke:none" />
    <rect
        x="2"
        y="12"
        height="56"
        width="96"
        style="fill:#ffffff;fill-opacity:1;stroke:none" />
    <polygon
        points="50,40 25,22.5 25,21.5 75,21.5 75,22.5"
        style="fill:#4a4244;stroke:none" />
    <polygon
        points="50,41 25,23.5 25,56.5 75,56.5 75,23.5"
        style="fill:#4a4244;stroke:none" />
    <line
        x1="42.5"
        y1="39"
        x2="27.5"
        y2="54"
        style="stroke:#ffffff;stroke-width:1;stroke-linecap:butt" />
    <line
        x1="57.5"
        y1="39"
        x2="72.5"
        y2="54"
        style="stroke:#ffffff;stroke-width:1;stroke-linecap:butt" />
    <ellipse
        cx="50"
        cy="87"
        rx="25"
        ry="3" 
        style="fill:#4a4244;fill-opacity:1;stroke:none" />
    <path
        d="m 43,88 c 0,0 2,-6 2,-10 0,-2 0,-8 0,-8 l 10,0 c 0,0 0,6 0,8 0,4 2,10 2,10 z"
        style="fill:#4a4244;stroke:none" />
</svg>
