<svg
    xmlns="http://www.w3.org/2000/svg"
    width="100"
    height="100"
    viewbox="0 0 100 100">
    <path
        d="m 14,90 72,0 c 6,0 8,0 8,-7 L 94,70 C 94,60 81,55 74,45 67,35 70,21 63,21 c 0,6 0,7 -2,7 L 39,28 C 37,28 37,27 37,21 30,21 33,35 26,45 19,55 6,60 6,70 l 0,13 c 0,7 2,7 8,7 z" 
        style="fill:#4a4244;stroke:none" />
    <path
        d="m 50,22 c 20,0 23,2 25,7 2,5 -2,5 -2,10 0,5 18,8 20,8 3,0 7,-3 7,-12 0,-3 0,-25 -50,-25 C 0,10 0,32 0,35 c 0,9 4,12 7,12 1,0 20,-3 20,-8 0,-5 -4,-5 -2,-10 2,-5 5,-7 25,-7 z" 
        style="fill:#4a4244;stroke:none" />
    <circle
        cx="50"
        cy="64"
        r="18"
        style="fill:#ffffff;stroke:none" />
    <circle
        cx="50"
        cy="53"
        r="2"
        transform="rotate(60, 50, 64)"
        style="fill:#4a4244;stroke:none" />
    <circle
        cx="50"
        cy="53"
        r="2"
        transform="rotate(30, 50, 64)"
        style="fill:#4a4244;stroke:none" />
    <circle
        cx="50"
        cy="53"
        r="2"
        style="fill:#4a4244;stroke:none" />
    <circle
        cx="50"
        cy="53"
        r="2"
        transform="rotate(-30, 50, 64)"
        style="fill:#4a4244;stroke:none" />
    <circle
        cx="50"
        cy="53"
        r="2"
        transform="rotate(-60, 50, 64)"
        style="fill:#4a4244;stroke:none" />
    <circle
        cx="50"
        cy="53"
        r="2"
        transform="rotate(-90, 50, 64)"
        style="fill:#4a4244;stroke:none" />
    <circle
        cx="50"
        cy="53"
        r="2"
        transform="rotate(-120, 50, 64)"
        style="fill:#4a4244;stroke:none" />
    <circle
        cx="50"
        cy="53"
        r="2"
        transform="rotate(-150, 50, 64)"
        style="fill:#4a4244;stroke:none" />
    <circle
        cx="50"
        cy="53"
        r="2"
        transform="rotate(-180, 50, 64)"
        style="fill:#4a4244;stroke:none" />
    <circle
        cx="50"
        cy="53"
        r="2"
        transform="rotate(-210, 50, 64)"
        style="fill:#4a4244;stroke:none" />
</svg>
